PathFileType  4	(X/Y/Z) C:\Users\antoi\Documents\MyRepositories\mobilecap\ResultsAnalysis
DataRate	CameraRate	NumFrames	NumMarkers	Units	OrigDataRate	OrigDataStartFrame	OrigNumFrames
100.0	100.0	4	51	mm	100.0	102	271
Frame#	Time	r_knee			r_shank_antsup			r_ankle			r_calc			r_5meta			r_toe			L_knee			L_shank_antsup			L_ankle			L_calc			L_5meta			L_toe			r_sh2			r_sh3			r_sh4			L_sh2			L_sh3			r_thigh1			r_thigh2			r_thigh3			r_thigh4			r_thigh5			L_thigh1			L_thigh2			L_thigh3			L_thigh4			r.ASIS			r.PSIS			L.ASIS			L.PSIS			C7			R_Shoulder			L_Shoulder			R_Sternum			L_Sternum			R_humerus			R_elbow_med			R_elbow_lat			R_forearm			R_wrist_radius			R_wrist_ulna			L_humerus			L_elbow_med			L_elbow_lat			L_forearm			L_wrist_radius			L_wrist_ulna			R_HJC			L_HJC			R_HJC_reg			L_HJC_reg			
		X1	Y1	Z1	X2	Y2	Z2	X3	Y3	Z3	X4	Y4	Z4	X5	Y5	Z5	X6	Y6	Z6	X7	Y7	Z7	X8	Y8	Z8	X9	Y9	Z9	X10	Y10	Z10	X11	Y11	Z11	X12	Y12	Z12	X13	Y13	Z13	X14	Y14	Z14	X15	Y15	Z15	X16	Y16	Z16	X17	Y17	Z17	X18	Y18	Z18	X19	Y19	Z19	X20	Y20	Z20	X21	Y21	Z21	X22	Y22	Z22	X23	Y23	Z23	X24	Y24	Z24	X25	Y25	Z25	X26	Y26	Z26	X27	Y27	Z27	X28	Y28	Z28	X29	Y29	Z29	X30	Y30	Z30	X31	Y31	Z31	X32	Y32	Z32	X33	Y33	Z33	X34	Y34	Z34	X35	Y35	Z35	X36	Y36	Z36	X37	Y37	Z37	X38	Y38	Z38	X39	Y39	Z39	X40	Y40	Z40	X41	Y41	Z41	X42	Y42	Z42	X43	Y43	Z43	X44	Y44	Z44	X45	Y45	Z45	X46	Y46	Z46	X47	Y47	Z47	X48	Y48	Z48	X49	Y49	Z49	X50	Y50	Z50	X51	Y51	Z51	

102	1.01000000	-1003.38391	722.81793	-450.77789	-1010.46423	619.84685	-463.71122	-1266.84730	411.12372	-459.14336	-1337.93266	379.40553	-506.80469	-1161.18801	349.61294	-415.48806	-1124.68180	373.18183	-469.95462	-972.64430	731.37069	-728.13976	-975.83153	631.75856	-711.49567	-1244.96464	427.60197	-715.77829	-1328.17185	402.02925	-664.86530	-1161.47494	349.38224	-754.37634	-1108.80771	366.38583	-699.60763	-1084.27134	533.00177	-464.06065	-1058.05726	657.35063	-417.85125	-1137.63394	574.41352	-413.65983	-1024.72734	692.84841	-756.62179	-1109.30427	604.38308	-763.38428	-1011.32218	1000.57962	-409.86707	-981.75323	895.74099	-432.91770	-1024.54712	852.61991	-405.15903	-1118.07602	964.68102	-397.22235	-1079.50369	857.22298	-419.10040	-974.18472	986.47679	-744.51596	-924.12237	857.56613	-719.65494	-1069.83212	944.70558	-779.74991	-1022.93622	823.28678	-750.18110	-993.38279	1156.21371	-453.72755	-1176.18009	1254.03217	-537.45400	-990.10884	1153.97590	-707.53182	-1170.70487	1252.63897	-632.95571	-979.78797	1670.83523	-568.15258	-909.99732	1631.56651	-411.87220	-890.78142	1620.60327	-703.28087	-881.05647	1564.99650	-538.04087	-879.05735	1567.42928	-584.53650	-826.48275	1551.50753	-364.45012	-767.40137	1342.10166	-349.87463	-753.52166	1375.57143	-293.59999	-664.02198	1392.03452	-304.47104	-514.21333	1356.12377	-381.48066	-514.65995	1332.34373	-336.75904	-804.40839	1541.16542	-752.46719	-729.46831	1346.12827	-747.10911	-706.48631	1387.47183	-808.66740	-630.11777	1402.82346	-790.18308	-472.66170	1354.72322	-717.66868	-474.51662	1338.43713	-767.08065	-1100.23706	1100.97537	-480.43336	-1095.58277	1099.77369	-669.93471	-1090.09186	1107.21580	-494.34820	-1080.49925	1104.77487	-661.58268	
103	1.02000000	-1000.12534	723.63476	-451.12410	-1007.84241	621.01235	-463.47388	-1265.49284	413.32683	-459.57393	-1336.67488	383.11122	-507.41996	-1160.81689	349.51680	-415.35489	-1123.82461	372.93862	-469.84403	-969.84439	731.49087	-728.70783	-973.96788	632.18266	-712.50399	-1243.94572	428.50988	-715.81151	-1327.20799	403.87478	-664.97017	-1161.26606	349.23903	-754.55655	-1108.41338	366.07909	-699.96148	-1081.97628	534.38308	-463.92141	-1055.47752	658.65820	-417.72363	-1135.09384	576.07363	-414.11394	-1022.94341	693.33856	-757.23597	-1107.70633	605.16440	-763.87886	-1002.48604	1001.85853	-410.47689	-974.97254	896.19792	-433.07333	-1018.83605	853.92278	-405.77135	-1110.10575	968.17073	-397.86214	-1073.64389	859.84075	-419.27670	-965.87870	986.61348	-745.38797	-918.66358	856.36824	-720.75982	-1062.90915	947.19970	-779.73912	-1018.69890	824.62274	-750.43818	-982.69548	1159.24748	-453.81732	-1166.01719	1256.63728	-538.17959	-978.96894	1156.74152	-707.85433	-1160.03611	1255.10700	-633.43541	-975.68217	1675.43077	-568.08695	-905.70196	1638.54198	-412.44416	-886.48791	1627.69058	-702.99202	-875.25632	1571.60655	-538.03365	-873.07558	1574.11708	-584.60445	-820.52548	1561.69391	-364.13135	-755.48947	1354.36393	-345.58381	-742.56866	1389.07125	-290.01665	-653.92478	1410.17928	-302.13454	-503.42395	1381.83688	-380.57239	-502.04637	1358.35071	-335.79085	-798.13071	1551.59840	-753.18143	-717.01241	1359.23954	-750.13571	-695.50465	1401.92852	-811.28152	-619.84979	1420.56987	-792.37002	-460.82463	1379.60869	-719.62190	-461.66076	1363.58658	-769.03718	-1089.48964	1103.74887	-480.76774	-1084.47111	1102.37025	-670.25878	-1079.57473	1109.89235	-494.92675	-1069.06741	1107.20444	-662.26682	
104	1.03000000	-996.83853	725.04242	-451.43801	-1005.08132	623.18729	-462.75134	-1263.50757	416.48986	-459.97976	-1335.07781	388.03444	-507.83613	-1160.20891	349.58043	-415.39384	-1122.72387	372.72732	-469.64110	-967.98945	732.33111	-729.33540	-972.81978	633.23844	-713.60108	-1243.15368	429.47552	-715.71652	-1326.33948	405.69161	-665.12170	-1161.12892	349.14141	-754.78878	-1108.12343	365.74785	-700.29061	-1079.51081	536.79845	-463.32542	-1052.82487	660.90857	-417.34471	-1133.07792	578.57285	-413.92857	-1022.11027	694.30894	-757.77421	-1106.88700	606.23535	-764.41089	-993.12346	1004.10078	-410.97277	-967.67191	897.65737	-433.11836	-1012.62094	856.77402	-405.54379	-1101.40819	972.78070	-398.38606	-1067.15924	863.58061	-419.28841	-957.21894	987.35876	-746.26543	-913.53113	855.56616	-721.99635	-1055.72088	950.77676	-779.81538	-1014.85610	826.88536	-750.74675	-971.17386	1163.35627	-453.88331	-1154.97614	1259.78244	-538.64587	-966.94389	1160.83586	-708.09236	-1148.64946	1258.38210	-634.05188	-971.57864	1681.05913	-568.15645	-901.48428	1646.51439	-412.95389	-882.25966	1635.74814	-702.63069	-869.45899	1579.35768	-537.92151	-867.08568	1581.94753	-584.75019	-814.90278	1572.62641	-363.73146	-744.51209	1367.45748	-340.95025	-732.62203	1403.37830	-286.26442	-644.98384	1428.75682	-299.41384	-494.23371	1407.69576	-379.35933	-491.11209	1384.71598	-334.46338	-792.20055	1562.82457	-753.97016	-705.45983	1373.06462	-753.56677	-685.36174	1417.11067	-813.93927	-610.49367	1438.62477	-794.82494	-450.27559	1404.35469	-722.01924	-450.23678	1388.55893	-771.44337	-1077.68601	1107.31554	-481.15165	-1072.25949	1105.96461	-670.63186	-1067.83985	1113.26202	-495.40562	-1056.74022	1110.80411	-662.83110	
105	1.04000000	-993.23192	727.79817	-450.74133	-1002.02606	626.54815	-461.37735	-1261.14110	420.84245	-460.18536	-1332.65716	394.17420	-508.24630	-1159.57069	349.87966	-415.57134	-1121.28878	372.45745	-469.39136	-967.06598	734.00836	-730.24595	-972.50592	634.90518	-714.63936	-1242.37067	430.75178	-715.77336	-1325.51040	407.65502	-665.14821	-1160.99985	349.13727	-755.00489	-1107.90258	365.43747	-700.55776	-1076.53221	540.28480	-462.33989	-1049.92198	664.23741	-416.56863	-1130.88458	582.16098	-413.43329	-1022.19443	695.90151	-758.40235	-1106.78080	607.74720	-764.93876	-983.10013	1007.43667	-411.28029	-959.69484	900.26470	-432.89794	-1005.72633	860.60594	-404.86114	-1091.97614	978.38601	-398.82299	-1059.96353	868.40150	-419.26574	-948.16515	988.62854	-747.05056	-908.86882	855.42195	-723.36779	-1048.18614	955.35233	-779.80119	-1011.29349	830.15661	-751.28487	-958.95931	1168.47649	-454.15181	-1143.30176	1263.61016	-539.08668	-954.01977	1166.37088	-708.34358	-1136.54422	1262.44587	-634.68996	-967.55937	1687.75507	-568.11964	-897.45466	1655.51293	-413.37397	-878.13909	1644.73409	-702.22699	-863.71144	1588.29382	-537.72581	-861.01101	1590.80716	-584.83540	-809.61122	1584.32710	-363.32696	-734.43415	1381.36085	-335.99664	-723.72351	1418.53536	-282.17917	-637.14619	1447.71196	-296.42566	-486.53166	1433.43184	-377.83617	-481.81545	1411.16013	-332.71967	-786.68395	1574.79363	-754.86550	-694.88496	1387.53352	-757.52958	-676.03377	1433.04611	-816.96922	-601.99308	1457.01419	-797.59435	-440.84622	1428.83753	-724.89394	-440.07266	1413.43397	-774.38659	-1064.95463	1111.65181	-481.77134	-1059.01133	1110.66284	-671.23820	-1055.22265	1117.61679	-496.18238	-1043.39278	1115.57763	-663.55499	
